<svg xmlns="http://www.w3.org/2000/svg" width="18" height="18" viewBox="0 0 18 18"><title>my_auth</title><g fill="none" class="nc-icon-wrapper"><defs><clipPath id="1747798583053-6492608_master_svg0_62_04496"><rect x="0" y="0" width="18" height="18" rx="0"></rect></clipPath></defs><g clip-path="url(#1747798583053-6492608_master_svg0_62_04496)"><path d="M12.546321875,2.25C13.008221875,2.2499830055,13.435521875,2.494693,13.669221875,2.893061L16.151221874999997,7.12459C16.438621875000003,7.61458,16.375021875,8.23433,15.993921875,8.65564L9.965511875,15.3214C9.483381875,15.8545,8.660251875,15.896,8.127021875,15.4139C8.094641875,15.3847,8.063761875,15.3538,8.034491875,15.3214L2.006086875,8.65568C1.625028675,8.23433,1.561360875,7.6146,1.848762875,7.12461L4.330831874999999,2.893061C4.564491875,2.49471,4.991781875,2.25,5.4536718749999995,2.25L12.546321875,2.25Z" fill="#606266" fill-opacity="1" style="mix-blend-mode:passthrough"></path><path d="M12.546321875,3.375L5.453661875,3.375C5.392801875,3.375,5.336411875,3.4062362,5.3041518750000005,3.4573885L5.301201875,3.46224L2.819135575,7.69379C2.781212975,7.75842,2.788350845,7.83998,2.836924675,7.89704L2.840457775,7.90109L8.868861875,14.5668C8.872831875,14.5712,8.877011875,14.5754,8.881411875000001,14.5793C8.952491875,14.6436,9.061621875,14.6394,9.127501875,14.5707L9.131121875,14.5668L15.159521875,7.90107C15.209821875,7.8455,15.219421875,7.7642,15.183521875,7.69845L15.180821875,7.69379L12.698781875,3.4622403999999998C12.668041875,3.4099252,12.612651875,3.37700089,12.552001875,3.375L12.546321875,3.375Z" fill="#FFF" fill-opacity="1" style="mix-blend-mode:passthrough"></path><path d="M11,7Q11,7.09825,10.99037,7.19603Q10.98074,7.293810000000001,10.96157,7.39018Q10.9424,7.486549999999999,10.913879999999999,7.58057Q10.88536,7.67459,10.847760000000001,7.76537Q10.81016,7.85614,10.76384,7.9427900000000005Q10.71753,8.02945,10.662939999999999,8.111139999999999Q10.60835,8.19284,10.54602,8.26879Q10.48369,8.34474,10.41421,8.41421Q10.34474,8.48369,10.26879,8.54602Q10.19284,8.60835,10.111139999999999,8.662939999999999Q10.02945,8.71753,9.94279,8.76384Q9.85614,8.81016,9.76537,8.847760000000001Q9.67459,8.88536,9.58057,8.913879999999999Q9.48655,8.9424,9.39018,8.96157Q9.29381,8.98074,9.19603,8.99037Q9.09825,9,9,9Q8.90175,9,8.80397,8.99037Q8.70619,8.98074,8.60982,8.96157Q8.51345,8.9424,8.41943,8.913879999999999Q8.32541,8.88536,8.23463,8.847760000000001Q8.14386,8.81016,8.05721,8.76384Q7.970554,8.71753,7.888859,8.662939999999999Q7.807164,8.60835,7.731213,8.54602Q7.6552620000000005,8.48369,7.585786,8.41421Q7.516311,8.34474,7.453979,8.26879Q7.391648,8.19284,7.337061,8.111139999999999Q7.282474,8.02945,7.236157,7.9427900000000005Q7.189841,7.85614,7.152241,7.76537Q7.114641,7.67459,7.0861193,7.58057Q7.0575978,7.486549999999999,7.0384294,7.39018Q7.0192611,7.293810000000001,7.00963055,7.19603Q7,7.09825,7,7Q7,6.90175,7.00963055,6.80397Q7.0192611,6.70619,7.0384294,6.60982Q7.0575978,6.51345,7.0861193,6.41943Q7.114641,6.32541,7.152241,6.23463Q7.189841,6.14386,7.236157,6.0572099999999995Q7.282474,5.970554,7.337061,5.888859Q7.391648,5.807164,7.453979,5.731213Q7.516311,5.6552620000000005,7.585786,5.585786Q7.6552620000000005,5.516311,7.731213,5.453979Q7.807164,5.391648,7.888859,5.337061Q7.970554,5.282474,8.05721,5.236157Q8.14386,5.189841,8.23463,5.152241Q8.32541,5.114641,8.41943,5.0861193Q8.51345,5.0575978,8.60982,5.0384294Q8.70619,5.0192611,8.80397,5.00963055Q8.90175,5,9,5Q9.09825,5,9.19603,5.00963055Q9.29381,5.0192611,9.39018,5.0384294Q9.48655,5.0575978,9.58057,5.0861193Q9.67459,5.114641,9.76537,5.152241Q9.85614,5.189841,9.94279,5.236157Q10.02945,5.282474,10.111139999999999,5.337061Q10.19284,5.391648,10.26879,5.453979Q10.34474,5.516311,10.41421,5.585786Q10.48369,5.6552620000000005,10.54602,5.731213Q10.60835,5.807164,10.662939999999999,5.888859Q10.71753,5.970554,10.76384,6.0572099999999995Q10.81016,6.14386,10.847760000000001,6.23463Q10.88536,6.32541,10.913879999999999,6.41943Q10.9424,6.51345,10.96157,6.60982Q10.98074,6.70619,10.99037,6.80397Q11,6.90175,11,7ZM9.879999999999999,7Q9.879999999999999,6.91333,9.86309,6.82832Q9.84618,6.74331,9.81301,6.66324Q9.77985,6.5831599999999995,9.73169,6.5111Q9.68354,6.43903,9.622250000000001,6.37775Q9.560970000000001,6.31646,9.488900000000001,6.26831Q9.41684,6.22015,9.33676,6.18699Q9.256689999999999,6.15382,9.17168,6.13691Q9.08667,6.12,9,6.12Q8.91333,6.12,8.82832,6.13691Q8.74331,6.15382,8.66324,6.18699Q8.58316,6.22015,8.5111,6.26831Q8.43903,6.31646,8.37775,6.37775Q8.31646,6.43903,8.26831,6.5111Q8.22015,6.5831599999999995,8.18699,6.66324Q8.15382,6.74331,8.13691,6.82832Q8.120000000000001,6.91333,8.120000000000001,7Q8.120000000000001,7.08667,8.13691,7.17168Q8.15382,7.25669,8.18699,7.33676Q8.22015,7.4168400000000005,8.26831,7.4889Q8.31646,7.56097,8.37775,7.62225Q8.43903,7.68354,8.5111,7.73169Q8.58316,7.77985,8.66324,7.81301Q8.74331,7.84618,8.82832,7.86309Q8.91333,7.88,9,7.88Q9.08667,7.88,9.17168,7.86309Q9.256689999999999,7.84618,9.33676,7.81301Q9.41684,7.77985,9.488900000000001,7.73169Q9.560970000000001,7.68354,9.622250000000001,7.62225Q9.68354,7.56097,9.73169,7.4889Q9.77985,7.4168400000000005,9.81301,7.33676Q9.84618,7.25669,9.86309,7.17168Q9.879999999999999,7.08667,9.879999999999999,7Z" fill="#606266" fill-opacity="1"></path><path d="M9,8L12.5,8Q12.54925,8,12.59754,8.009607Q12.64584,8.019214999999999,12.69134,8.03806Q12.73684,8.056906,12.77778,8.084265Q12.81873,8.111625,12.85355,8.146447Q12.88838,8.181269,12.91573,8.222215Q12.94309,8.263161,12.96194,8.308658Q12.98078,8.354155,12.99039,8.4024549Q13,8.4507543,13,8.5Q13,8.5492457,12.99039,8.5975451Q12.98078,8.645845,12.96194,8.691342Q12.94309,8.736839,12.91573,8.777785Q12.88838,8.818731,12.85355,8.853553Q12.81873,8.888375,12.77778,8.915735Q12.73684,8.943094,12.69134,8.96194Q12.64584,8.980785000000001,12.59754,8.990393Q12.54925,9,12.5,9L9,9Q8.9507543,9,8.9024549,8.990393Q8.854155,8.980785000000001,8.808658,8.96194Q8.763161,8.943094,8.722215,8.915735Q8.681269,8.888375,8.646447,8.853553Q8.611625,8.818731,8.584265,8.777785Q8.556906,8.736839,8.53806,8.691342Q8.519214999999999,8.645845,8.509607,8.5975451Q8.5,8.5492457,8.5,8.5Q8.5,8.4507543,8.509607,8.4024549Q8.519214999999999,8.354155,8.53806,8.308658Q8.556906,8.263161,8.584265,8.222215Q8.611625,8.181269,8.646447,8.146447Q8.681269,8.111625,8.722215,8.084265Q8.763161,8.056906,8.808658,8.03806Q8.854155,8.019214999999999,8.9024549,8.009607Q8.9507543,8,9,8Z" fill-rule="evenodd" fill="#606266" fill-opacity="1" transform="rotate(90 9 8.5)"></path><path d="M9,9.5L10.5,9.5Q10.54925,9.5,10.59754,9.509607Q10.64584,9.519214999999999,10.69134,9.53806Q10.73684,9.556906,10.77778,9.584265Q10.81873,9.611625,10.85355,9.646447Q10.88838,9.681269,10.91573,9.722215Q10.94309,9.763161,10.96194,9.808658Q10.98079,9.854155,10.99039,9.9024549Q11,9.9507543,11,10Q11,10.0492457,10.99039,10.0975451Q10.98079,10.145845,10.96194,10.191342Q10.94309,10.236839,10.91573,10.277785Q10.88838,10.318731,10.85355,10.353553Q10.81873,10.388375,10.77778,10.415735Q10.73684,10.443094,10.69134,10.46194Q10.64584,10.480785000000001,10.59755,10.490393Q10.54925,10.5,10.5,10.5L9,10.5Q8.9507543,10.5,8.9024549,10.490393Q8.854155,10.480785000000001,8.808658,10.46194Q8.763161,10.443094,8.722215,10.415735Q8.681269,10.388375,8.646447,10.353553Q8.611625,10.318731,8.584265,10.277785Q8.556906,10.236839,8.53806,10.191342Q8.519214999999999,10.145845,8.509607,10.0975451Q8.5,10.0492457,8.5,10Q8.5,9.9507543,8.509607,9.9024549Q8.519214999999999,9.854155,8.53806,9.808658Q8.556906,9.763161,8.584265,9.722215Q8.611625,9.681269,8.646447,9.646447Q8.681269,9.611625,8.722215,9.584265Q8.763161,9.556906,8.808658,9.53806Q8.854155,9.519214999999999,8.9024549,9.509607Q8.9507543,9.5,9,9.5Z" fill-rule="evenodd" fill="#606266" fill-opacity="1"></path></g></g></svg>