<svg xmlns="http://www.w3.org/2000/svg" width="18" height="18" viewBox="0 0 18 18"><title>my_business</title><g fill="none" class="nc-icon-wrapper"><defs><clipPath id="1747798583046-6025311_master_svg0_62_04502"><rect x="0" y="0" width="18" height="18" rx="0"></rect></clipPath></defs><g clip-path="url(#1747798583046-6025311_master_svg0_62_04502)"><path d="M5.484375,4.5L12.515625,4.5L12.515625,4.78125C12.515625,5.247246,12.137875000000001,5.625,11.671875,5.625L6.328125,5.625C5.862129,5.625,5.484375,5.247246,5.484375,4.78125L5.484375,4.5Z" fill="#FF6000" fill-opacity="1" style="mix-blend-mode:passthrough"></path><path d="M12,12.1962Q12.34057,11.9995,12.65257,11.7601Q12.96456,11.5207,13.2426,11.2426Q13.5207,10.96456,13.7601,10.65257Q13.9995,10.34058,14.1962,10Q14.3928,9.65943,14.5433,9.2961Q14.6938,8.932780000000001,14.7956,8.55292Q14.8973,8.17305,14.9487,7.78316Q15,7.39326,15,7Q15,6.85271,14.9928,6.70559Q14.9855,6.55848,14.9711,6.4119Q14.9567,6.26531,14.9351,6.11962Q14.9134,5.97392,14.8847,5.82946Q14.856,5.685,14.8202,5.54212Q14.7844,5.39924,14.7416,5.25829Q14.6989,5.11734,14.6493,4.97866Q14.5996,4.839980000000001,14.5433,4.7039Q14.4869,4.56782,14.4239,4.434670000000001Q14.361,4.30152,14.2915,4.17162Q14.2221,4.04172,14.1464,3.91538Q14.0706,3.78905,13.9888,3.66658Q13.907,3.54411,13.8192,3.4258Q13.7315,3.3075,13.6381,3.19364Q13.5446,3.07978,13.4457,2.97065Q13.3468,2.86151,13.2426,2.7573600000000003Q13.1385,2.65321,13.0294,2.55429Q12.92022,2.45538,12.80636,2.3619399999999997Q12.6925,2.2685,12.57419,2.1807499999999997Q12.45589,2.09301,12.33342,2.01118Q12.21095,1.929351,12.08462,1.853628Q11.95828,1.777905,11.82838,1.708472Q11.69848,1.63904,11.56533,1.5760640000000001Q11.43218,1.513089,11.2961,1.456723Q11.16002,1.400357,11.02134,1.350736Q10.88266,1.301114,10.741710000000001,1.2583579999999999Q10.600760000000001,1.215601,10.45788,1.179812Q10.315000000000001,1.144023,10.170539999999999,1.115288Q10.02608,1.0865531,9.880379999999999,1.0649409Q9.73469,1.0433288,9.5881,1.0288916Q9.44152,1.0144545,9.29441,1.00722726Q9.14729,1,9,1Q8.85271,1,8.70559,1.00722726Q8.55848,1.0144545,8.4119,1.0288916Q8.26531,1.0433288,8.119620000000001,1.0649409Q7.97392,1.0865531,7.82946,1.115288Q7.685,1.144023,7.54212,1.179812Q7.39924,1.215601,7.25829,1.2583579999999999Q7.11734,1.301114,6.97866,1.350736Q6.839980000000001,1.400357,6.7039,1.456723Q6.56782,1.513089,6.434670000000001,1.5760640000000001Q6.30152,1.63904,6.17162,1.708472Q6.04172,1.777905,5.91538,1.853628Q5.78905,1.929351,5.66658,2.01118Q5.54411,2.09301,5.425800000000001,2.1807499999999997Q5.3075,2.2685,5.19364,2.3619399999999997Q5.0797799999999995,2.45538,4.97065,2.55429Q4.86151,2.65321,4.75736,2.7573600000000003Q4.65321,2.86151,4.55429,2.97065Q4.45538,3.07978,4.36194,3.19364Q4.2684999999999995,3.3075,4.18075,3.4258Q4.09301,3.54411,4.0111799999999995,3.66658Q3.929351,3.78905,3.853628,3.91538Q3.777905,4.04172,3.708472,4.17162Q3.63904,4.30152,3.576064,4.434670000000001Q3.513089,4.56782,3.456723,4.7039Q3.400357,4.839980000000001,3.350736,4.97866Q3.301114,5.11734,3.258358,5.25829Q3.215601,5.39924,3.179812,5.54212Q3.144023,5.685,3.115288,5.82946Q3.0865531,5.97392,3.0649409,6.11962Q3.0433288,6.26532,3.0288916,6.4119Q3.0144545,6.55848,3.00722726,6.70559Q3,6.85271,3,7Q3,7.39326,3.0513308,7.78316Q3.102662,8.17305,3.2044449999999998,8.55291Q3.306228,8.932780000000001,3.456723,9.2961Q3.607217,9.65943,3.803848,10Q4.00048,10.34058,4.23988,10.65257Q4.47928,10.96456,4.75736,11.2426Q5.0354399999999995,11.5207,5.34743,11.7601Q5.65943,11.9995,6,12.1962L6,13.5C6,14.6046,6.89543,15.5,8,15.5L10,15.5C11.10457,15.5,12,14.6046,12,13.5L12,12.1962Z" fill-rule="evenodd" fill="#FFF" fill-opacity="1"></path><path d="M12,12.1962Q12.34057,11.9995,12.65257,11.7601Q12.96456,11.5207,13.2426,11.2426Q13.5207,10.96456,13.7601,10.65257Q13.9995,10.34058,14.1962,10Q14.3928,9.65943,14.5433,9.2961Q14.6938,8.932780000000001,14.7956,8.55292Q14.8973,8.17305,14.9487,7.78316Q15,7.39326,15,7Q15,6.85271,14.9928,6.70559Q14.9855,6.55848,14.9711,6.4119Q14.9567,6.26531,14.9351,6.11962Q14.9134,5.97392,14.8847,5.82946Q14.856,5.685,14.8202,5.54212Q14.7844,5.39924,14.7416,5.25829Q14.6989,5.11734,14.6493,4.97866Q14.5996,4.839980000000001,14.5433,4.7039Q14.4869,4.56782,14.4239,4.434670000000001Q14.361,4.30152,14.2915,4.17162Q14.2221,4.04172,14.1464,3.91538Q14.0706,3.78905,13.9888,3.66658Q13.907,3.54411,13.8192,3.4258Q13.7315,3.3075,13.6381,3.19364Q13.5446,3.07978,13.4457,2.97065Q13.3468,2.86151,13.2426,2.7573600000000003Q13.1385,2.65321,13.0294,2.55429Q12.92022,2.45538,12.80636,2.3619399999999997Q12.6925,2.2685,12.57419,2.1807499999999997Q12.45589,2.09301,12.33342,2.01118Q12.21095,1.929351,12.08462,1.853628Q11.95828,1.777905,11.82838,1.708472Q11.69848,1.63904,11.56533,1.5760640000000001Q11.43218,1.513089,11.2961,1.456723Q11.16002,1.400357,11.02134,1.350736Q10.88266,1.301114,10.741710000000001,1.2583579999999999Q10.600760000000001,1.215601,10.45788,1.179812Q10.315000000000001,1.144023,10.170539999999999,1.115288Q10.02608,1.0865531,9.880379999999999,1.0649409Q9.73469,1.0433288,9.5881,1.0288916Q9.44152,1.0144545,9.29441,1.00722726Q9.14729,1,9,1Q8.85271,1,8.70559,1.00722726Q8.55848,1.0144545,8.4119,1.0288916Q8.26531,1.0433288,8.119620000000001,1.0649409Q7.97392,1.0865531,7.82946,1.115288Q7.685,1.144023,7.54212,1.179812Q7.39924,1.215601,7.25829,1.2583579999999999Q7.11734,1.301114,6.97866,1.350736Q6.839980000000001,1.400357,6.7039,1.456723Q6.56782,1.513089,6.434670000000001,1.5760640000000001Q6.30152,1.63904,6.17162,1.708472Q6.04172,1.777905,5.91538,1.853628Q5.78905,1.929351,5.66658,2.01118Q5.54411,2.09301,5.425800000000001,2.1807499999999997Q5.3075,2.2685,5.19364,2.3619399999999997Q5.0797799999999995,2.45538,4.97065,2.55429Q4.86151,2.65321,4.75736,2.7573600000000003Q4.65321,2.86151,4.55429,2.97065Q4.45538,3.07978,4.36194,3.19364Q4.2684999999999995,3.3075,4.18075,3.4258Q4.09301,3.54411,4.0111799999999995,3.66658Q3.929351,3.78905,3.853628,3.91538Q3.777905,4.04172,3.708472,4.17162Q3.63904,4.30152,3.576064,4.434670000000001Q3.513089,4.56782,3.456723,4.7039Q3.400357,4.839980000000001,3.350736,4.97866Q3.301114,5.11734,3.258358,5.25829Q3.215601,5.39924,3.179812,5.54212Q3.144023,5.685,3.115288,5.82946Q3.0865531,5.97392,3.0649409,6.11962Q3.0433288,6.26532,3.0288916,6.4119Q3.0144545,6.55848,3.00722726,6.70559Q3,6.85271,3,7Q3,7.39326,3.0513308,7.78316Q3.102662,8.17305,3.2044449999999998,8.55291Q3.306228,8.932780000000001,3.456723,9.2961Q3.607217,9.65943,3.803848,10Q4.00048,10.34058,4.23988,10.65257Q4.47928,10.96456,4.75736,11.2426Q5.0354399999999995,11.5207,5.34743,11.7601Q5.65943,11.9995,6,12.1962L6,13.5C6,14.6046,6.89543,15.5,8,15.5L10,15.5C11.10457,15.5,12,14.6046,12,13.5L12,12.1962ZM13.2262,9.44Q12.57241,10.57241,11.44,11.2262L10.879999999999999,11.5495L10.879999999999999,13.5Q10.879999999999999,13.8645,10.622250000000001,14.1223Q10.36451,14.38,10,14.38L8,14.38Q7.63549,14.38,7.37775,14.1223Q7.12,13.8645,7.12,13.5L7.12,11.5495L6.5600000000000005,11.2262Q5.42759,10.57241,4.7738,9.44Q4.12,8.307590000000001,4.12,7Q4.12,4.97864,5.54932,3.54932Q6.97864,2.12,9,2.12Q11.02136,2.12,12.45068,3.54932Q13.88,4.97864,13.88,7Q13.88,8.307590000000001,13.2262,9.44Z" fill-rule="evenodd" fill="#606266" fill-opacity="1"></path><path d="M7,15.89L11,15.89Q11.06008,15.89,11.119,15.901721Q11.17793,15.913442,11.23344,15.936433Q11.28894,15.959425,11.338899999999999,15.992804Q11.38885,16.026182,11.431329999999999,16.068665Q11.47382,16.111148,11.507200000000001,16.161102Q11.54058,16.211057,11.56357,16.266563Q11.58656,16.32207,11.598279999999999,16.380995Q11.61,16.4399203,11.61,16.5Q11.61,16.5600797,11.598279999999999,16.619005Q11.58656,16.67793,11.56357,16.733437Q11.54058,16.788943,11.507200000000001,16.838898Q11.47382,16.888852,11.431329999999999,16.931335Q11.38885,16.973818,11.338899999999999,17.007196Q11.28894,17.040575,11.23344,17.063566Q11.17793,17.086558,11.119,17.098279Q11.06008,17.11,11,17.11L7,17.11Q6.9399203,17.11,6.880995,17.098279Q6.82207,17.086558,6.766563,17.063567Q6.711057,17.040575,6.661102,17.007196Q6.611148,16.973818,6.568665,16.931335Q6.526182,16.888852,6.492804,16.838898Q6.4594249999999995,16.788943,6.436434,16.733437Q6.413442,16.67793,6.401721,16.619005Q6.39,16.5600797,6.39,16.5Q6.39,16.4399203,6.401721,16.380995Q6.413442,16.32207,6.436433,16.266563Q6.4594249999999995,16.211057,6.492804,16.161102Q6.526182,16.111148,6.568665,16.068665Q6.611148,16.026182,6.661102,15.992804Q6.711057,15.959425,6.766563,15.936434Q6.82207,15.913442,6.880995,15.901721Q6.9399203,15.89,7,15.89Z" fill-rule="evenodd" fill="#606266" fill-opacity="1"></path><g><path d="M7,12.39L11,12.39Q11.06008,12.39,11.119,12.401721Q11.17793,12.413442,11.23344,12.436433Q11.28894,12.459425,11.338899999999999,12.492804Q11.38885,12.526182,11.431329999999999,12.568665Q11.47382,12.611148,11.507200000000001,12.661102Q11.54058,12.711057,11.56357,12.766563Q11.58656,12.82207,11.598279999999999,12.880995Q11.61,12.9399203,11.61,13Q11.61,13.0600797,11.598279999999999,13.119005Q11.58656,13.17793,11.56357,13.233437Q11.54058,13.288943,11.507200000000001,13.338898Q11.47382,13.388852,11.431329999999999,13.431335Q11.38885,13.473818,11.338899999999999,13.507196Q11.28894,13.540575,11.23344,13.563566Q11.17793,13.586558,11.119,13.598279Q11.06008,13.61,11,13.61L7,13.61Q6.9399203,13.61,6.880995,13.598279Q6.82207,13.586558,6.766563,13.563567Q6.711057,13.540575,6.661102,13.507196Q6.611148,13.473818,6.568665,13.431335Q6.526182,13.388852,6.492804,13.338898Q6.4594249999999995,13.288943,6.436434,13.233437Q6.413442,13.17793,6.401721,13.119005Q6.39,13.0600797,6.39,13Q6.39,12.9399203,6.401721,12.880995Q6.413442,12.82207,6.436433,12.766563Q6.4594249999999995,12.711057,6.492804,12.661102Q6.526182,12.611148,6.568665,12.568665Q6.611148,12.526182,6.661102,12.492804Q6.711057,12.459425,6.766563,12.436434Q6.82207,12.413442,6.880995,12.401721Q6.9399203,12.39,7,12.39Z" fill-rule="evenodd" fill="#606266" fill-opacity="1"></path></g></g></g></svg>