<svg xmlns="http://www.w3.org/2000/svg" width="18" height="18" viewBox="0 0 18 18"><title>my_home</title><g fill="none" class="nc-icon-wrapper"><defs><clipPath id="1747798583049-6261064_master_svg0_62_04492"><rect x="0" y="0" width="18" height="18" rx="0"></rect></clipPath></defs><g clip-path="url(#1747798583049-6261064_master_svg0_62_04492)"><path d="M9.909474375,2.0893887104492186L15.113434375,6.5011507104492186C15.483734375,6.815100710449219,15.697234375,7.2760207104492185,15.697234375,7.761500710449218L15.697234375,14.43159071044922C15.697234375,15.344190710449219,14.957534375,16.08399071044922,14.044934375,16.08399071044922L3.9550743749999997,16.08399071044922C3.042509375,16.08399071044922,2.302734375,15.344190710449219,2.302734375,14.43159071044922L2.302734375,7.762750710449219C2.3027366066,7.277320710449219,2.516194375,6.816450710449219,2.886433375,6.502500710449219L8.090614375000001,2.0894937104492186C8.615264374999999,1.6445917104492187,9.384764375,1.6445567104492187,9.909474375,2.0893887104492186Z" fill="#606266" fill-opacity="1" style="mix-blend-mode:passthrough"></path><path d="M9.181984374999999,2.9474998516601563C9.078954375,2.860148651660156,8.928374375,2.8583774516601563,8.823324375,2.9432811516601562L8.818224375,2.947534951660156L3.614027375,7.360525451660156C3.498113475,7.458825451660156,3.430219345,7.602345451660156,3.427734375,7.754305451660156L3.427734375,14.431675451660157C3.427734375,14.719975451660156,3.659133375,14.954275451660155,3.946359375,14.958975451660157L14.044934375,14.958975451660157C14.333234375,14.958975451660157,14.567534375,14.727575451660156,14.572234375,14.440375451660156L14.572234375,7.761495451660156C14.572234375,7.609505451660156,14.506734375,7.464895451660157,14.392334375,7.364755451660156L14.385934375,7.3592554516601565L9.181984374999999,2.9474998516601563Z" fill="#FFF" fill-opacity="1" style="mix-blend-mode:passthrough"></path><path d="M9,9.544921875C9.310658,9.544921875,9.5625,9.796763875,9.5625,10.107421875L9.5625,13.623041875L8.4375,13.623041875L8.4375,10.107421875C8.4375,9.796763875,8.689342,9.544921875,9,9.544921875Z" fill="#606266" fill-opacity="1" style="mix-blend-mode:passthrough"></path></g></g></svg>