<svg xmlns="http://www.w3.org/2000/svg" width="18" height="18" viewBox="0 0 18 18"><title>my_notice</title><g fill="none" class="nc-icon-wrapper"><defs><clipPath id="1747798583051-530574_master_svg0_62_04509"><rect x="0" y="0" width="18" height="18" rx="0"></rect></clipPath></defs><g clip-path="url(#1747798583051-530574_master_svg0_62_04509)"><path d="M9.000005,1.265625C13.271525,1.265625,16.734425,4.232615,16.734425,7.892575C16.734425,11.445525,13.471125,14.345425,9.372495,14.511925L6.432805,16.673425C6.182525,16.857525000000003,5.830435,16.803725,5.646415,16.553525C5.575395,16.456925,5.537095,16.340125,5.537095,16.220325000000003L5.537055,13.819825C3.004155,12.731225,1.265625,10.485875,1.265625,7.892575C1.265625,4.232615,4.728425,1.265625,9.000005,1.265625Z" fill="#606266" fill-opacity="1" style="mix-blend-mode:passthrough"></path><path d="M9.000005,2.390625C5.3144849999999995,2.390625,2.390625,4.895845,2.390625,7.892575C2.390625,9.931725,3.750825,11.801775,5.915395,12.757525L5.981235,12.786225C6.3902149999999995,12.961925,6.656675,13.362025,6.661965,13.806325L6.662055,13.819825L6.662075,15.108525L8.706075,13.605625C8.883265,13.475325,9.094764999999999,13.399825,9.314405,13.388525L9.326834999999999,13.387925C12.870125,13.243925,15.609425,10.789805,15.609425,7.892575C15.609425,4.895845,12.685525,2.390625,9.000005,2.390625Z" fill="#FFF" fill-opacity="1" style="mix-blend-mode:passthrough"></path><path d="M5.591636806640625,8.80781935571289C5.763436806640625,9.11336235571289,6.021246806640625,9.396897355712891,6.350756806640625,9.63991835571289C6.997806806640625,10.117128355712891,7.874586806640625,10.40656835571289,8.824206806640625,10.438458355712891L8.824206806640625,11.56397835571289C7.638406806640625,11.53119835571289,6.526746806640625,11.16759835571289,5.683016806640625,10.54532835571289C5.229373806640625,10.21076835571289,4.863695806640625,9.80855835571289,4.611010006640625,9.35919335571289C4.458765906640625,9.08840235571289,4.554847906640625,8.74545335571289,4.825638806640625,8.59319155571289C5.096447806640625,8.440947155712891,5.439378806640625,8.53702945571289,5.591636806640625,8.80781935571289Z" fill="#606266" fill-opacity="1" style="mix-blend-mode:passthrough"></path></g></g></svg>