<svg xmlns="http://www.w3.org/2000/svg" width="18" height="18" viewBox="0 0 18 18"><title>my_project</title><g fill="none" class="nc-icon-wrapper"><defs><clipPath id="1747798583045-8790866_master_svg0_62_04481"><rect x="0" y="0" width="18" height="18" rx="0"></rect></clipPath></defs><g clip-path="url(#1747798583045-8790866_master_svg0_62_04481)"><path d="M14.73047,9.298828125L14.73047,15.187498125000001L13.88672,16.031248125L9,12.673828125L14.73047,9.298828125Z" fill="#FFF" fill-opacity="1" style="mix-blend-mode:passthrough"></path><path d="M15.36331875,14.934575C15.36331875,15.788875,14.67071875,16.481475,13.81641875,16.481475C13.50871875,16.481475,13.20791875,16.389675,12.95261875,16.217775L12.94071875,16.209675L9.00143875,13.504475L5.05896875,16.210475000000002C4.3616487500000005,16.689075000000003,3.4109137499999997,16.518375,2.92287375,15.831475L2.90823175,15.810475C2.73417175,15.556875,2.63964455,15.257075,2.63671875,14.949575L2.63671875,3.515625C2.63671875,2.439193,3.50061375,1.5645235,4.5729187499999995,1.547138672L4.60546875,1.546875L13.39451875,1.546875C14.47091875,1.546875,15.34561875,2.41077,15.36301875,3.483075L15.36331875,3.515625L15.36331875,14.934575ZM14.23831875,9.910105L9.99533875,12.822275L13.57761875,15.282275C13.64791875,15.330575,13.73111875,15.356475,13.81641875,15.356475C14.04701875,15.356475,14.23451875,15.171275,14.23821875,14.941575L14.23831875,14.934575L14.23831875,9.910105Z" fill="#606266" fill-opacity="1" style="mix-blend-mode:passthrough"></path><path d="M13.39452875,2.671875L13.40848875,2.671875C13.86801875,2.67943359,14.23831875,3.054287,14.23831875,3.515625L14.23831875,8.545605L4.42232175,15.282975C4.23022875,15.414775,3.96761075,15.365975,3.83577515,15.173875C3.78753765,15.103575,3.76171875,15.020375,3.76171875,14.935075L3.76171875,3.515625C3.76171875,3.049629,4.13947275,2.671875,4.60546875,2.671875L13.39452875,2.671875Z" fill="#FFF" fill-opacity="1" style="mix-blend-mode:passthrough"></path><path d="M5.484375,4.5L12.515625,4.5L12.515625,4.78125C12.515625,5.247246,12.137875000000001,5.625,11.671875,5.625L6.328125,5.625C5.862129,5.625,5.484375,5.247246,5.484375,4.78125L5.484375,4.5Z" fill="#606266" fill-opacity="1" style="mix-blend-mode:passthrough"></path></g></g></svg>