<svg xmlns="http://www.w3.org/2000/svg" width="18" height="18" viewBox="0 0 18 18"><title>my_process</title><g fill="none" class="nc-icon-wrapper"><defs><clipPath id="1747798583049-4030242_master_svg0_62_04465"><rect x="0" y="0" width="18" height="18" rx="0"></rect></clipPath></defs><g clip-path="url(#1747798583049-4030242_master_svg0_62_04465)"><ellipse cx="9" cy="10.077" rx="5.769" ry="5.769" fill="#FFF" fill-opacity="1"></ellipse><path d="M14.769269157409669,10.076922050933838Q14.769269157409669,10.218552050933837,14.762269157409667,10.360002050933838Q14.755369157409667,10.501462050933839,14.741469157409668,10.642402050933839Q14.727569157409668,10.78335205093384,14.706769157409669,10.923442050933838Q14.685969157409668,11.063532050933837,14.658369157409668,11.202442050933838Q14.630769157409668,11.341342050933838,14.596369157409669,11.478732050933838Q14.561969157409669,11.616112050933838,14.520769157409667,11.751642050933839Q14.479669157409669,11.887172050933838,14.431969157409668,12.020512050933839Q14.384269157409667,12.153862050933839,14.330069157409667,12.284712050933837Q14.275869157409668,12.415552050933838,14.215369157409668,12.543582050933837Q14.154769157409667,12.671612050933838,14.087969157409669,12.796512050933838Q14.021269157409668,12.921422050933838,13.948469157409669,13.042892050933839Q13.875669157409668,13.164372050933839,13.796969157409668,13.282132050933837Q13.718269157409669,13.399892050933838,13.633869157409668,13.513642050933838Q13.549569157409667,13.627402050933838,13.459669157409667,13.736882050933838Q13.369869157409667,13.846362050933838,13.274669157409669,13.951302050933839Q13.179609157409669,14.056232050933838,13.079459157409667,14.156382050933837Q12.979319157409668,14.256532050933838,12.874379157409669,14.351592050933839Q12.769439157409668,14.446792050933837,12.659959157409668,14.536592050933837Q12.550479157409669,14.626492050933837,12.436729157409667,14.710792050933838Q12.322969157409668,14.795192050933839,12.205209157409667,14.873892050933838Q12.087449157409669,14.952592050933838,11.965979157409668,15.025392050933839Q11.844499157409668,15.098192050933838,11.719599157409668,15.164892050933839Q11.594689157409668,15.231692050933837,11.466659157409667,15.292292050933838Q11.338629157409668,15.352792050933838,11.207789157409668,15.406992050933837Q11.076939157409669,15.461192050933837,10.943599157409668,15.508892050933838Q10.810249157409668,15.556592050933839,10.674719157409669,15.597692050933837Q10.539189157409668,15.638892050933839,10.401809157409668,15.673292050933838Q10.264429157409669,15.707692050933838,10.125519157409668,15.735292050933838Q9.986619157409667,15.762892050933837,9.846519157409668,15.783692050933839Q9.70642915740967,15.804492050933838,9.56547915740967,15.818392050933838Q9.424539157409669,15.832292050933837,9.283079157409668,15.839192050933837Q9.141629157409668,15.846192050933839,8.999999157409668,15.846192050933839Q8.858369157409669,15.846192050933839,8.716919157409668,15.839192050933837Q8.575459157409668,15.832292050933837,8.434519157409667,15.818392050933838Q8.293569157409667,15.804492050933838,8.153479157409668,15.783692050933839Q8.013379157409668,15.762892050933837,7.8744791574096675,15.735292050933838Q7.735569157409668,15.707692050933838,7.598189157409668,15.673292050933838Q7.460809157409668,15.638892050933839,7.325279157409668,15.597692050933837Q7.189749157409668,15.556592050933839,7.056409157409668,15.508892050933838Q6.923059157409668,15.461192050933837,6.792209157409668,15.406992050933837Q6.661369157409668,15.352792050933838,6.533339157409667,15.292292050933838Q6.405309157409668,15.231692050933837,6.2803991574096685,15.164892050933839Q6.155499157409668,15.098192050933838,6.034019157409668,15.025392050933839Q5.912549157409668,14.952592050933838,5.794789157409668,14.873892050933838Q5.6770291574096685,14.795192050933839,5.5632691574096675,14.710792050933838Q5.449519157409668,14.626492050933837,5.340039157409668,14.536592050933837Q5.230559157409668,14.446792050933837,5.125619157409668,14.351592050933839Q5.020679157409668,14.256532050933838,4.920539157409668,14.156382050933837Q4.820389157409668,14.056232050933838,4.725279157409668,13.951302050933839Q4.630169157409668,13.846362050933838,4.540329157409668,13.736882050933838Q4.450479157409668,13.627402050933838,4.366109157409668,13.513642050933838Q4.2817391574096675,13.399892050933838,4.203060157409668,13.282132050933837Q4.124376157409668,13.164372050933839,4.051565157409668,13.042892050933839Q3.978755157409668,12.921422050933838,3.9119931574096682,12.796512050933838Q3.845230157409668,12.671612050933838,3.784677157409668,12.543582050933837Q3.724124157409668,12.415552050933838,3.6699261574096678,12.284712050933837Q3.615727157409668,12.153862050933839,3.568015157409668,12.020512050933839Q3.520302157409668,11.887172050933838,3.479190157409668,11.751642050933839Q3.438078157409668,11.616112050933838,3.403666157409668,11.478732050933838Q3.369253157409668,11.341342050933838,3.3416231574096678,11.202442050933838Q3.313993357409668,11.063532050933837,3.293212357409668,10.923442050933838Q3.272431457409668,10.78335205093384,3.258549557409668,10.642402050933839Q3.244667757409668,10.501462050933839,3.237718447409668,10.360002050933838Q3.230769157409668,10.218552050933837,3.230769157409668,10.076922050933838Q3.230769157409668,9.935292050933839,3.237718447409668,9.793842050933838Q3.244667757409668,9.652382050933838,3.258549557409668,9.511442050933837Q3.272431457409668,9.370492050933837,3.293212357409668,9.230402050933838Q3.313993357409668,9.090302050933838,3.3416231574096678,8.951402050933837Q3.369253157409668,8.812492050933837,3.403666157409668,8.675112050933837Q3.438078157409668,8.537732050933837,3.479190157409668,8.402202050933838Q3.520302157409668,8.266672050933838,3.568015157409668,8.133322050933838Q3.615727157409668,7.999982050933838,3.6699261574096678,7.869132050933838Q3.724124157409668,7.738282050933838,3.784677157409668,7.610262050933837Q3.845230157409668,7.482232050933838,3.9119931574096682,7.357322050933838Q3.978755157409668,7.232422050933838,4.051565157409668,7.110942050933838Q4.124376157409668,6.989472050933838,4.203060157409668,6.871712050933838Q4.2817391574096675,6.753952050933838,4.366109157409668,6.6401920509338375Q4.450479157409668,6.526442050933838,4.540329157409668,6.416962050933838Q4.630169157409668,6.307482050933838,4.725279157409668,6.202542050933838Q4.820389157409668,6.097602050933838,4.920539157409668,5.997462050933838Q5.020679157409668,5.897312050933838,5.125619157409668,5.802202050933838Q5.230559157409668,5.707092050933838,5.340039157409668,5.617242050933838Q5.449519157409668,5.527402050933838,5.5632691574096675,5.443032050933838Q5.6770291574096685,5.358662050933837,5.794789157409668,5.279982050933838Q5.912549157409668,5.201299050933838,6.034019157409668,5.1284880509338375Q6.155499157409668,5.055678050933838,6.2803991574096685,4.988915050933838Q6.405309157409668,4.922153050933838,6.533339157409667,4.861600050933838Q6.661369157409668,4.801047050933838,6.792209157409668,4.7468480509338375Q6.923059157409668,4.692650050933838,7.056409157409668,4.644938050933838Q7.189749157409668,4.5972250509338375,7.325279157409668,4.556113050933838Q7.460809157409668,4.515001050933838,7.598189157409668,4.480589050933838Q7.735579157409668,4.446176050933838,7.8744791574096675,4.418546050933838Q8.013389157409668,4.390916150933838,8.153479157409668,4.370135250933838Q8.293569157409667,4.3493543509338375,8.434519157409667,4.335472450933838Q8.575459157409668,4.321590650933838,8.716919157409668,4.3146413409338376Q8.858369157409669,4.307692050933838,8.999999157409668,4.307692050933838Q9.141629157409668,4.307692050933838,9.283079157409668,4.3146413409338376Q9.424539157409669,4.321590650933838,9.56547915740967,4.335472450933838Q9.70642915740967,4.3493543509338375,9.846519157409668,4.370135250933838Q9.986619157409667,4.390916150933838,10.125519157409668,4.418546050933838Q10.264429157409669,4.446176050933838,10.401809157409668,4.480589050933838Q10.539189157409668,4.515001050933838,10.674719157409669,4.556113050933838Q10.810249157409668,4.5972250509338375,10.943599157409668,4.644938050933838Q11.076939157409669,4.692650050933838,11.207789157409668,4.7468480509338375Q11.338629157409668,4.801047050933838,11.466659157409667,4.861600050933838Q11.594689157409668,4.922153050933838,11.719599157409668,4.988915050933838Q11.844499157409668,5.055678050933838,11.965979157409668,5.1284880509338375Q12.087449157409669,5.201299050933838,12.205209157409667,5.279982050933838Q12.322969157409668,5.358662050933837,12.436729157409667,5.443032050933838Q12.550479157409669,5.527402050933838,12.659959157409668,5.617242050933838Q12.769439157409668,5.707092050933838,12.874379157409669,5.802202050933838Q12.979319157409668,5.897312050933838,13.079459157409667,5.997462050933838Q13.179609157409669,6.097602050933838,13.274769157409668,6.202542050933838Q13.369869157409667,6.307482050933838,13.459669157409667,6.416962050933838Q13.549569157409667,6.526442050933838,13.633869157409668,6.6401920509338375Q13.718269157409669,6.753952050933838,13.796969157409668,6.871712050933838Q13.875669157409668,6.989472050933838,13.948469157409669,7.110942050933838Q14.021269157409668,7.232422050933838,14.087969157409669,7.357322050933838Q14.154769157409667,7.482232050933838,14.215369157409668,7.610262050933837Q14.275869157409668,7.738282050933838,14.330069157409667,7.869132050933838Q14.384269157409667,7.999982050933838,14.431969157409668,8.133322050933838Q14.479669157409669,8.266672050933838,14.520769157409667,8.402202050933838Q14.561969157409669,8.537732050933837,14.596369157409669,8.675112050933837Q14.630769157409668,8.812492050933837,14.658369157409668,8.951402050933837Q14.685969157409668,9.090302050933838,14.706769157409669,9.230402050933838Q14.727569157409668,9.370492050933837,14.741469157409668,9.511442050933837Q14.755369157409667,9.652382050933838,14.762269157409667,9.793842050933838Q14.769269157409669,9.935292050933839,14.769269157409669,10.076922050933838ZM13.649269157409668,10.076922050933838Q13.649269157409668,9.962792050933839,13.643669157409668,9.848792050933838Q13.638069157409667,9.734802050933837,13.626869157409669,9.621222050933838Q13.615669157409668,9.507632050933838,13.598869157409668,9.394742050933838Q13.582169157409668,9.281842050933838,13.559869157409668,9.169902050933839Q13.537669157409669,9.057962050933838,13.509869157409668,8.947252050933837Q13.482169157409668,8.836542050933838,13.449069157409667,8.727322050933838Q13.415869157409668,8.618102050933839,13.377469157409667,8.51064205093384Q13.338969157409668,8.403182050933838,13.295369157409668,8.297742050933838Q13.251669157409667,8.192292050933837,13.202849157409668,8.089122050933838Q13.154059157409668,7.985942050933838,13.100259157409669,7.885292050933838Q13.046449157409668,7.784632050933838,12.987779157409667,7.686742050933837Q12.929099157409668,7.588842050933838,12.865689157409667,7.493952050933838Q12.802289157409668,7.399052050933838,12.734299157409668,7.307382050933838Q12.666309157409668,7.215712050933838,12.593909157409668,7.127482050933837Q12.521499157409668,7.039252050933838,12.444859157409669,6.954692050933838Q12.368209157409668,6.870122050933838,12.287499157409668,6.7894220509338385Q12.206799157409668,6.708712050933838,12.122229157409668,6.632072050933838Q12.037669157409669,6.555422050933838,11.949439157409667,6.4830220509338385Q11.861219157409668,6.410612050933838,11.769539157409667,6.342622050933838Q11.677869157409669,6.274632050933838,11.582979157409667,6.2112320509338375Q11.488079157409668,6.147822050933838,11.390179157409667,6.089142050933837Q11.292289157409668,6.030472050933838,11.191629157409668,5.976672050933837Q11.090979157409668,5.922862050933838,10.987799157409668,5.874072050933838Q10.884629157409668,5.825272050933838,10.779179157409668,5.781592050933838Q10.673739157409667,5.737912050933838,10.566279157409667,5.699462050933838Q10.458819157409668,5.661012050933838,10.349599157409667,5.627882050933838Q10.240379157409668,5.594752050933838,10.129669157409669,5.567022050933838Q10.018959157409668,5.539292050933838,9.907019157409668,5.5170220509338375Q9.795079157409667,5.494762050933838,9.682179157409667,5.478012050933838Q9.569289157409667,5.461262050933838,9.455709157409668,5.450082050933838Q9.342119157409668,5.438892050933838,9.228129157409668,5.433292050933838Q9.114129157409668,5.427692050933838,8.999999157409668,5.427692050933838Q8.885869157409669,5.427692050933838,8.771869157409668,5.433292050933838Q8.657879157409667,5.438892050933838,8.544299157409668,5.450082050933838Q8.430709157409668,5.461262050933838,8.317819157409668,5.478012050933838Q8.204919157409668,5.494762050933838,8.092979157409669,5.5170220509338375Q7.981039157409668,5.539292050933838,7.870329157409668,5.567022050933838Q7.759619157409668,5.594752050933838,7.650399157409668,5.627882050933838Q7.541179157409668,5.661012050933838,7.433719157409668,5.699462050933838Q7.326259157409668,5.737912050933838,7.220819157409668,5.781592050933838Q7.115369157409668,5.825272050933838,7.012199157409668,5.874072050933838Q6.909019157409668,5.922862050933838,6.808369157409668,5.976672050933837Q6.707709157409668,6.030472050933838,6.609819157409667,6.089142050933837Q6.511919157409668,6.147822050933838,6.417029157409668,6.2112320509338375Q6.322129157409668,6.274632050933838,6.230459157409668,6.342622050933838Q6.1387891574096685,6.410612050933838,6.050559157409667,6.4830220509338385Q5.962329157409668,6.555422050933838,5.877769157409668,6.632072050933838Q5.793199157409668,6.708712050933838,5.712499157409669,6.7894220509338385Q5.631789157409668,6.870122050933838,5.555149157409668,6.954692050933838Q5.478499157409668,7.039252050933838,5.406099157409669,7.127482050933837Q5.333689157409668,7.215712050933838,5.265699157409668,7.307382050933838Q5.197719157409668,7.399052050933838,5.1343091574096675,7.493952050933838Q5.070899157409668,7.588842050933838,5.0122191574096675,7.686742050933837Q4.953549157409668,7.784632050933838,4.899749157409667,7.885292050933838Q4.845939157409668,7.985942050933838,4.7971491574096685,8.089122050933838Q4.748349157409668,8.192292050933837,4.704669157409668,8.297742050933838Q4.660989157409668,8.403182050933838,4.622539157409668,8.51064205093384Q4.584089157409668,8.618102050933839,4.550959157409668,8.727322050933838Q4.517829157409668,8.836542050933838,4.490099157409668,8.947252050933837Q4.462369157409668,9.057962050933838,4.4400991574096675,9.169902050933839Q4.417839157409668,9.281842050933838,4.401089157409668,9.394742050933838Q4.384339157409668,9.507632050933838,4.373159157409668,9.621222050933838Q4.361969157409668,9.734802050933837,4.356369157409668,9.848792050933838Q4.350769157409668,9.962792050933839,4.350769157409668,10.076922050933838Q4.350769157409668,10.191052050933838,4.356369157409668,10.305052050933838Q4.361969157409668,10.419042050933838,4.373159157409668,10.532622050933838Q4.384339157409668,10.646212050933837,4.401089157409668,10.759102050933837Q4.417839157409668,10.872002050933837,4.4400991574096675,10.983942050933837Q4.462369157409668,11.095882050933838,4.490099157409668,11.206592050933839Q4.517829157409668,11.317302050933838,4.550959157409668,11.426522050933837Q4.584099157409668,11.535742050933838,4.622549157409668,11.643202050933837Q4.660989157409668,11.750662050933837,4.704669157409668,11.856102050933838Q4.748349157409668,11.961552050933838,4.7971491574096685,12.064722050933838Q4.845939157409668,12.167902050933838,4.899749157409667,12.268552050933838Q4.953549157409668,12.369212050933838,5.0122191574096675,12.467102050933837Q5.070899157409668,12.565002050933838,5.1343091574096675,12.659892050933838Q5.197719157409668,12.754792050933839,5.265699157409668,12.846462050933837Q5.333689157409668,12.938132050933838,5.406099157409669,13.026362050933837Q5.478499157409668,13.114592050933839,5.555149157409668,13.199152050933838Q5.631789157409668,13.283722050933838,5.712499157409669,13.364422050933838Q5.793199157409668,13.445122050933838,5.877769157409668,13.521772050933837Q5.962329157409668,13.598422050933838,6.050559157409667,13.670822050933838Q6.1387891574096685,13.743232050933837,6.230459157409668,13.811212050933838Q6.322129157409668,13.879202050933838,6.417029157409668,13.942612050933837Q6.511919157409668,14.006022050933838,6.609819157409667,14.064692050933838Q6.707709157409668,14.123372050933838,6.808369157409668,14.177172050933837Q6.909019157409668,14.230972050933838,7.012199157409668,14.279772050933838Q7.115369157409668,14.328592050933837,7.220819157409668,14.372292050933838Q7.326259157409668,14.415892050933838,7.433719157409668,14.454392050933837Q7.541179157409668,14.492792050933838,7.650399157409668,14.525992050933837Q7.759619157409668,14.559092050933838,7.870329157409668,14.586792050933838Q7.981039157409668,14.614592050933839,8.092979157409669,14.636792050933838Q8.204919157409668,14.659092050933838,8.317819157409668,14.675792050933838Q8.430709157409668,14.692592050933838,8.544299157409668,14.703792050933838Q8.657879157409667,14.714992050933837,8.771869157409668,14.720592050933838Q8.885869157409669,14.726192050933838,8.999999157409668,14.726192050933838Q9.114129157409668,14.726192050933838,9.228129157409668,14.720592050933838Q9.342119157409668,14.714992050933837,9.455709157409668,14.703792050933838Q9.569289157409667,14.692592050933838,9.682179157409667,14.675792050933838Q9.795079157409667,14.659092050933838,9.907019157409668,14.636792050933838Q10.018959157409668,14.614592050933839,10.129669157409669,14.586792050933838Q10.240379157409668,14.559092050933838,10.349599157409667,14.525992050933837Q10.458819157409668,14.492792050933838,10.566279157409667,14.454392050933837Q10.673739157409667,14.415892050933838,10.779179157409668,14.372292050933838Q10.884629157409668,14.328592050933837,10.987799157409668,14.279772050933838Q11.090979157409668,14.230972050933838,11.191629157409668,14.177172050933837Q11.292289157409668,14.123372050933838,11.390179157409667,14.064692050933838Q11.488079157409668,14.006022050933838,11.582979157409667,13.942612050933837Q11.677869157409669,13.879202050933838,11.769539157409667,13.811222050933837Q11.861219157409668,13.743232050933837,11.949439157409667,13.670822050933838Q12.037669157409669,13.598422050933838,12.122229157409668,13.521772050933837Q12.206799157409668,13.445122050933838,12.287499157409668,13.364422050933838Q12.368209157409668,13.283722050933838,12.444849157409667,13.199152050933838Q12.521499157409668,13.114592050933839,12.593909157409668,13.026362050933837Q12.666309157409668,12.938132050933838,12.734299157409668,12.846462050933837Q12.802289157409668,12.754792050933839,12.865689157409667,12.659892050933838Q12.929099157409668,12.565002050933838,12.987779157409667,12.467102050933837Q13.046449157409668,12.369212050933838,13.100259157409669,12.268552050933838Q13.154059157409668,12.167902050933838,13.202849157409668,12.064722050933838Q13.251669157409667,11.961552050933838,13.295369157409668,11.856102050933838Q13.338969157409668,11.750662050933837,13.377469157409667,11.643202050933837Q13.415869157409668,11.535742050933838,13.449069157409667,11.426522050933837Q13.482169157409668,11.317302050933838,13.509869157409668,11.206592050933839Q13.537669157409669,11.095882050933838,13.559869157409668,10.983942050933837Q13.582169157409668,10.872002050933837,13.598869157409668,10.759102050933837Q13.615669157409668,10.646212050933837,13.626869157409669,10.532622050933838Q13.638069157409667,10.419042050933838,13.643669157409668,10.305052050933838Q13.649269157409668,10.191052050933838,13.649269157409668,10.076922050933838Z" fill="#606266" fill-opacity="1"></path><ellipse cx="9" cy="4.885" rx="2.885" ry="2.885" fill="#FFF" fill-opacity="1"></ellipse><path d="M11.884614101867676,4.88461Q11.884614101867676,5.02633,11.870724101867676,5.16736Q11.856834101867676,5.30839,11.829184101867675,5.447369999999999Q11.801544101867677,5.58636,11.760404101867675,5.72197Q11.719264101867676,5.8575800000000005,11.665034101867676,5.98851Q11.610804101867675,6.11943,11.544004101867674,6.24441Q11.477204101867676,6.36939,11.398474101867675,6.48722Q11.319734101867676,6.60505,11.229834101867675,6.71459Q11.139934101867675,6.82414,11.039734101867676,6.92435Q10.939524101867676,7.02455,10.829984101867677,7.11445Q10.720434101867676,7.20435,10.602604101867676,7.28308Q10.484774101867675,7.36181,10.359794101867676,7.42862Q10.234814101867677,7.49542,10.103894101867676,7.54965Q9.972964101867676,7.60388,9.837364101867676,7.64502Q9.701744101867675,7.68616,9.562764101867675,7.7138Q9.423774101867675,7.74145,9.282744101867676,7.75534Q9.141714101867676,7.76923,9.000004101867676,7.76923Q8.858284101867676,7.76923,8.717254101867676,7.75534Q8.576224101867677,7.74145,8.437234101867675,7.7138Q8.298254101867675,7.68616,8.162644101867675,7.64502Q8.027034101867676,7.60388,7.896104101867676,7.54965Q7.765184101867676,7.49542,7.640204101867676,7.42862Q7.515224101867676,7.36181,7.397394101867675,7.28308Q7.279564101867676,7.20435,7.170014101867675,7.11445Q7.060474101867676,7.02455,6.960268101867676,6.92435Q6.860063101867675,6.82414,6.770162101867676,6.71459Q6.680260101867676,6.60505,6.601529101867675,6.48722Q6.522798101867676,6.36939,6.455996101867676,6.24441Q6.389193101867676,6.11943,6.334962101867676,5.98851Q6.2807311018676755,5.8575800000000005,6.239595101867676,5.72197Q6.198457801867676,5.58636,6.170811201867676,5.44738Q6.143164501867676,5.30839,6.129274301867675,5.16736Q6.115384101867676,5.02633,6.115384101867676,4.88461Q6.115384101867676,4.742900000000001,6.129274301867675,4.60187Q6.143164501867676,4.46084,6.170811201867676,4.3218499999999995Q6.198457801867676,4.182869999999999,6.239595101867676,4.04726Q6.2807311018676755,3.91165,6.334962101867676,3.78072Q6.389193101867676,3.6498,6.455996101867676,3.52482Q6.522798101867676,3.39984,6.601529101867675,3.28201Q6.680260101867676,3.16418,6.770162101867676,3.05463Q6.860063101867675,2.94509,6.960268101867676,2.844884Q7.060474101867676,2.744679,7.170014101867675,2.654777Q7.279564101867676,2.564876,7.397394101867675,2.486145Q7.515224101867676,2.407414,7.640204101867676,2.340612Q7.765184101867676,2.273809,7.896104101867676,2.219578Q8.027034101867676,2.165347,8.162644101867675,2.124211Q8.298254101867675,2.0830737,8.437244101867677,2.0554271Q8.576224101867677,2.0277804,8.717254101867676,2.0138902Q8.858284101867676,2,9.000004101867676,2Q9.141714101867676,2,9.282744101867676,2.0138902Q9.423774101867675,2.0277804,9.562764101867675,2.0554271Q9.701744101867675,2.0830737,9.837364101867676,2.124211Q9.972964101867676,2.165347,10.103894101867676,2.219578Q10.234814101867677,2.273809,10.359794101867676,2.340612Q10.484774101867675,2.407414,10.602604101867676,2.486145Q10.720434101867676,2.564876,10.829984101867677,2.654777Q10.939524101867676,2.744679,11.039734101867676,2.844884Q11.139934101867675,2.94509,11.229834101867675,3.05463Q11.319734101867676,3.16418,11.398474101867675,3.28201Q11.477204101867676,3.39984,11.544004101867674,3.52482Q11.610804101867675,3.6498,11.665034101867676,3.78072Q11.719264101867676,3.91165,11.760404101867675,4.04726Q11.801544101867677,4.182869999999999,11.829184101867675,4.3218499999999995Q11.856834101867676,4.46084,11.870724101867676,4.60187Q11.884614101867676,4.742900000000001,11.884614101867676,4.88461ZM10.764614101867675,4.88461Q10.764614101867675,4.7979199999999995,10.756114101867675,4.711650000000001Q10.747624101867675,4.62538,10.730704101867676,4.54036Q10.713794101867677,4.45533,10.688634101867676,4.37237Q10.663464101867675,4.28942,10.630294101867676,4.20933Q10.597114101867675,4.12923,10.556254101867676,4.05278Q10.515384101867676,3.97633,10.467224101867675,3.90425Q10.419064101867676,3.83217,10.364064101867676,3.76515Q10.309074101867676,3.69814,10.247774101867677,3.6368400000000003Q10.186474101867676,3.57554,10.119464101867676,3.52055Q10.052444101867675,3.46555,9.980364101867675,3.41739Q9.908284101867675,3.36923,9.831834101867676,3.32836Q9.755384101867676,3.2875,9.675284101867675,3.25432Q9.595194101867676,3.2211499999999997,9.512244101867676,3.19598Q9.429284101867676,3.17082,9.344254101867676,3.1539099999999998Q9.259234101867676,3.13699,9.172964101867676,3.1285Q9.086694101867675,3.12,9.000004101867676,3.12Q8.913314101867677,3.12,8.827034101867676,3.1285Q8.740764101867676,3.13699,8.655744101867676,3.1539099999999998Q8.570714101867676,3.17082,8.487764101867675,3.19598Q8.404804101867676,3.2211499999999997,8.324714101867675,3.25432Q8.244624101867675,3.2875,8.168164101867676,3.32836Q8.091714101867677,3.36923,8.019634101867675,3.41739Q7.947554101867675,3.46555,7.880544101867676,3.52055Q7.813524101867676,3.57554,7.752224101867676,3.6368400000000003Q7.690924101867676,3.69814,7.635934101867676,3.76515Q7.580934101867676,3.83217,7.532774101867676,3.90425Q7.484614101867676,3.97633,7.443744101867676,4.05278Q7.402884101867675,4.12923,7.369704101867676,4.20933Q7.3365341018676755,4.28942,7.311364101867676,4.37237Q7.286204101867676,4.45533,7.2692941018676756,4.54036Q7.252374101867676,4.62538,7.243884101867676,4.711650000000001Q7.235384101867676,4.7979199999999995,7.235384101867676,4.88461Q7.235384101867676,4.971299999999999,7.243884101867676,5.05758Q7.252374101867676,5.1438500000000005,7.2692941018676756,5.228870000000001Q7.286204101867676,5.3139,7.311364101867676,5.39686Q7.3365341018676755,5.4798100000000005,7.369704101867676,5.5599Q7.402884101867675,5.640000000000001,7.443744101867676,5.71645Q7.484614101867676,5.7928999999999995,7.532774101867676,5.86498Q7.580934101867676,5.93706,7.635934101867676,6.00407Q7.690924101867676,6.07109,7.752224101867676,6.13239Q7.813524101867676,6.19369,7.880544101867676,6.24868Q7.947554101867675,6.30368,8.019634101867675,6.35184Q8.091714101867677,6.4,8.168164101867676,6.44087Q8.244624101867675,6.48173,8.324714101867675,6.51491Q8.404804101867676,6.54808,8.487754101867676,6.57325Q8.570714101867676,6.59841,8.655744101867676,6.61532Q8.740764101867676,6.63224,8.827034101867676,6.64073Q8.913314101867677,6.64923,9.000004101867676,6.64923Q9.086694101867675,6.64923,9.172964101867676,6.64073Q9.259234101867676,6.63224,9.344254101867676,6.61532Q9.429284101867676,6.59841,9.512244101867676,6.57325Q9.595194101867676,6.54808,9.675284101867675,6.51491Q9.755384101867676,6.48173,9.831834101867676,6.44087Q9.908284101867675,6.4,9.980364101867675,6.35184Q10.052444101867675,6.30368,10.119464101867676,6.24868Q10.186474101867676,6.19369,10.247774101867677,6.13239Q10.309074101867676,6.07109,10.364064101867676,6.00407Q10.419064101867676,5.93706,10.467224101867675,5.86498Q10.515384101867676,5.7928999999999995,10.556254101867676,5.71645Q10.597114101867675,5.63999,10.630294101867676,5.5599Q10.663464101867675,5.4798100000000005,10.688634101867676,5.39686Q10.713794101867677,5.3139,10.730704101867676,5.228870000000001Q10.747624101867675,5.1438500000000005,10.756114101867675,5.05758Q10.764614101867675,4.971299999999999,10.764614101867675,4.88461Z" fill="#606266" fill-opacity="1"></path><g><ellipse cx="13.615" cy="12.962" rx="2.885" ry="2.885" fill="#FFF" fill-opacity="1"></ellipse><path d="M16.499998203735352,12.961532416687012Q16.499998203735352,13.103252416687011,16.486108203735352,13.244282416687012Q16.472218203735352,13.385312416687011,16.44456820373535,13.524292416687011Q16.416928203735353,13.66328241668701,16.37578820373535,13.79889241668701Q16.33464820373535,13.934502416687012,16.28041820373535,14.065432416687011Q16.22618820373535,14.196352416687013,16.15938820373535,14.321332416687012Q16.092588203735353,14.446312416687011,16.013858203735353,14.564142416687012Q15.935118203735351,14.681972416687012,15.845218203735351,14.791512416687013Q15.755318203735351,14.901062416687012,15.655118203735352,15.001272416687012Q15.554908203735351,15.101472416687011,15.445368203735352,15.191372416687011Q15.335818203735352,15.281272416687012,15.217988203735352,15.360002416687012Q15.10015820373535,15.438732416687012,14.975178203735352,15.50554241668701Q14.850198203735353,15.572342416687011,14.719278203735351,15.626572416687011Q14.588348203735352,15.680802416687012,14.452748203735352,15.72194241668701Q14.31712820373535,15.763082416687013,14.17814820373535,15.79072241668701Q14.03915820373535,15.818372416687012,13.898128203735352,15.832262416687012Q13.757098203735351,15.846152416687012,13.615388203735352,15.846152416687012Q13.473668203735352,15.846152416687012,13.332638203735351,15.832262416687012Q13.191608203735353,15.818372416687012,13.052618203735351,15.79072241668701Q12.913638203735351,15.763082416687013,12.778028203735351,15.72194241668701Q12.642418203735351,15.680802416687012,12.511488203735352,15.626572416687011Q12.38056820373535,15.572342416687011,12.255588203735352,15.50554241668701Q12.13060820373535,15.438732416687012,12.012778203735351,15.360002416687012Q11.894948203735352,15.281272416687012,11.785398203735351,15.191372416687011Q11.675858203735352,15.101472416687011,11.575652203735352,15.001272416687012Q11.475447203735351,14.901062416687012,11.385546203735352,14.791512416687013Q11.295644203735351,14.681972416687012,11.216913203735352,14.564142416687012Q11.13818220373535,14.446312416687011,11.071380203735352,14.321332416687012Q11.004577203735352,14.196352416687013,10.950346203735352,14.065432416687011Q10.896115203735352,13.934502416687012,10.854979203735352,13.79889241668701Q10.813841903735351,13.66328241668701,10.78619530373535,13.52430241668701Q10.75854860373535,13.385312416687011,10.744658403735352,13.244282416687012Q10.730768203735352,13.103252416687011,10.730768203735352,12.961532416687012Q10.730768203735352,12.819822416687012,10.744658403735352,12.678792416687012Q10.75854860373535,12.537762416687013,10.78619530373535,12.398772416687011Q10.813841903735351,12.259792416687011,10.854979203735352,12.124182416687011Q10.896115203735352,11.988572416687012,10.950346203735352,11.857642416687012Q11.004577203735352,11.72672241668701,11.071380203735352,11.601742416687012Q11.13818220373535,11.476762416687011,11.216913203735352,11.358932416687011Q11.295644203735351,11.241102416687012,11.385546203735352,11.131552416687011Q11.475447203735351,11.022012416687012,11.575652203735352,10.921806416687012Q11.675858203735352,10.821601416687011,11.785398203735351,10.731699416687011Q11.894948203735352,10.641798416687012,12.012778203735351,10.563067416687012Q12.13060820373535,10.484336416687011,12.255588203735352,10.417534416687012Q12.38056820373535,10.350731416687012,12.511488203735352,10.296500416687012Q12.642418203735351,10.242269416687012,12.778028203735351,10.201133416687012Q12.913638203735351,10.159996116687012,13.052628203735352,10.132349516687011Q13.191608203735353,10.104702816687011,13.332638203735351,10.090812616687012Q13.473668203735352,10.076922416687012,13.615388203735352,10.076922416687012Q13.757098203735351,10.076922416687012,13.898128203735352,10.090812616687012Q14.03915820373535,10.104702816687011,14.17814820373535,10.132349516687011Q14.31712820373535,10.159996116687012,14.452748203735352,10.201133416687012Q14.588348203735352,10.242269416687012,14.719278203735351,10.296500416687012Q14.850198203735353,10.350731416687012,14.975178203735352,10.417534416687012Q15.10015820373535,10.484336416687011,15.217988203735352,10.563067416687012Q15.335818203735352,10.641798416687012,15.445368203735352,10.731699416687011Q15.554908203735351,10.821601416687011,15.655118203735352,10.921806416687012Q15.755318203735351,11.022012416687012,15.845218203735351,11.131552416687011Q15.935118203735351,11.241102416687012,16.013858203735353,11.358932416687011Q16.092588203735353,11.476762416687011,16.15938820373535,11.601742416687012Q16.22618820373535,11.72672241668701,16.28041820373535,11.857642416687012Q16.33464820373535,11.988572416687012,16.37578820373535,12.124182416687011Q16.416928203735353,12.259792416687011,16.44456820373535,12.398772416687011Q16.472218203735352,12.537762416687013,16.486108203735352,12.678792416687012Q16.499998203735352,12.819822416687012,16.499998203735352,12.961532416687012ZM15.37999820373535,12.961532416687012Q15.37999820373535,12.874842416687011,15.371498203735351,12.788572416687012Q15.363008203735351,12.702302416687012,15.346088203735352,12.617282416687011Q15.329178203735353,12.532252416687012,15.304018203735351,12.449292416687012Q15.27884820373535,12.366342416687012,15.245678203735352,12.286252416687011Q15.21249820373535,12.206152416687011,15.171638203735352,12.129702416687012Q15.130768203735352,12.053252416687013,15.08260820373535,11.981172416687011Q15.034448203735352,11.909092416687011,14.979448203735352,11.842072416687012Q14.924458203735352,11.775062416687012,14.863158203735352,11.713762416687011Q14.801858203735351,11.652462416687012,14.734848203735352,11.597472416687012Q14.66782820373535,11.542472416687012,14.59574820373535,11.494312416687011Q14.523668203735351,11.446152416687012,14.447218203735352,11.405282416687012Q14.370768203735352,11.364422416687011,14.29066820373535,11.331242416687012Q14.210578203735352,11.298072416687011,14.127628203735352,11.272902416687012Q14.044668203735352,11.24774241668701,13.959638203735352,11.230832416687011Q13.874618203735352,11.213912416687013,13.788348203735351,11.205422416687012Q13.70207820373535,11.196922416687013,13.615388203735352,11.196922416687013Q13.528698203735352,11.196922416687013,13.442418203735352,11.205422416687012Q13.356148203735351,11.213912416687013,13.271128203735351,11.230832416687011Q13.186098203735352,11.24774241668701,13.103148203735351,11.272902416687012Q13.020188203735351,11.298072416687011,12.940098203735351,11.331242416687012Q12.860008203735351,11.364422416687011,12.783548203735352,11.405282416687012Q12.707098203735352,11.446152416687012,12.635018203735351,11.494312416687011Q12.562938203735351,11.542472416687012,12.495928203735351,11.597472416687012Q12.428908203735352,11.652462416687012,12.367608203735351,11.713762416687011Q12.306308203735352,11.775062416687012,12.251318203735352,11.842072416687012Q12.196318203735352,11.909092416687011,12.14815820373535,11.981172416687011Q12.099998203735352,12.053252416687013,12.059128203735352,12.129702416687012Q12.018268203735351,12.206152416687011,11.985088203735351,12.286252416687011Q11.951918203735351,12.366342416687012,11.926748203735352,12.449292416687012Q11.90158820373535,12.532252416687012,11.884678203735351,12.617282416687011Q11.867758203735352,12.702302416687012,11.859268203735352,12.788572416687012Q11.850768203735353,12.874842416687011,11.850768203735353,12.961532416687012Q11.850768203735353,13.048222416687011,11.859268203735352,13.134502416687011Q11.867758203735352,13.220772416687012,11.884678203735351,13.305792416687012Q11.90158820373535,13.390822416687012,11.926748203735352,13.473782416687012Q11.951918203735351,13.556732416687012,11.985088203735351,13.63682241668701Q12.018268203735351,13.716922416687012,12.059128203735352,13.793372416687012Q12.099998203735352,13.869822416687011,12.14815820373535,13.941902416687011Q12.196318203735352,14.01398241668701,12.251318203735352,14.08099241668701Q12.306308203735352,14.148012416687012,12.367608203735351,14.209312416687013Q12.428908203735352,14.270612416687012,12.495928203735351,14.325602416687012Q12.562938203735351,14.380602416687012,12.635018203735351,14.428762416687011Q12.707098203735352,14.476922416687012,12.783548203735352,14.517792416687012Q12.860008203735351,14.55865241668701,12.940098203735351,14.591832416687012Q13.020188203735351,14.62500241668701,13.103138203735352,14.650172416687012Q13.186098203735352,14.675332416687013,13.271128203735351,14.692242416687012Q13.356148203735351,14.709162416687011,13.442418203735352,14.717652416687011Q13.528698203735352,14.726152416687011,13.615388203735352,14.726152416687011Q13.70207820373535,14.726152416687011,13.788348203735351,14.717652416687011Q13.874618203735352,14.709162416687011,13.959638203735352,14.692242416687012Q14.044668203735352,14.675332416687013,14.127628203735352,14.650172416687012Q14.210578203735352,14.62500241668701,14.29066820373535,14.591832416687012Q14.370768203735352,14.55865241668701,14.447218203735352,14.517792416687012Q14.523668203735351,14.476922416687012,14.59574820373535,14.428762416687011Q14.66782820373535,14.380602416687012,14.734848203735352,14.325602416687012Q14.801858203735351,14.270612416687012,14.863158203735352,14.209312416687013Q14.924458203735352,14.148012416687012,14.979448203735352,14.08099241668701Q15.034448203735352,14.01398241668701,15.08260820373535,13.941902416687011Q15.130768203735352,13.869822416687011,15.171638203735352,13.793372416687012Q15.21249820373535,13.716912416687013,15.245678203735352,13.63682241668701Q15.27884820373535,13.556732416687012,15.304018203735351,13.473782416687012Q15.329178203735353,13.390822416687012,15.346088203735352,13.305792416687012Q15.363008203735351,13.220772416687012,15.371498203735351,13.134502416687011Q15.37999820373535,13.048222416687011,15.37999820373535,12.961532416687012Z" fill="#606266" fill-opacity="1"></path></g><g><ellipse cx="4.385" cy="12.962" rx="2.885" ry="2.885" fill="#FFF" fill-opacity="1"></ellipse><path d="M7.26923,12.961532416687012Q7.26923,13.103252416687011,7.25534,13.244282416687012Q7.24145,13.385312416687011,7.2138,13.524292416687011Q7.18616,13.66328241668701,7.14502,13.79889241668701Q7.10388,13.934502416687012,7.04965,14.065432416687011Q6.99542,14.196352416687013,6.92862,14.321332416687012Q6.86182,14.446312416687011,6.78309,14.564142416687012Q6.70435,14.681972416687012,6.61445,14.791512416687013Q6.52455,14.901062416687012,6.42435,15.001272416687012Q6.32414,15.101472416687011,6.2146,15.191372416687011Q6.10505,15.281272416687012,5.98722,15.360002416687012Q5.86939,15.438732416687012,5.74441,15.50554241668701Q5.61943,15.572342416687011,5.48851,15.626572416687011Q5.3575800000000005,15.680802416687012,5.22198,15.72194241668701Q5.08636,15.763082416687013,4.94738,15.79072241668701Q4.80839,15.818372416687012,4.66736,15.832262416687012Q4.52633,15.846152416687012,4.38462,15.846152416687012Q4.242900000000001,15.846152416687012,4.10187,15.832262416687012Q3.96084,15.818372416687012,3.82185,15.79072241668701Q3.68287,15.763082416687013,3.54726,15.72194241668701Q3.41165,15.680802416687012,3.28072,15.626572416687011Q3.1498,15.572342416687011,3.02482,15.50554241668701Q2.89984,15.438732416687012,2.78201,15.360002416687012Q2.66418,15.281272416687012,2.55463,15.191372416687011Q2.44509,15.101472416687011,2.344884,15.001272416687012Q2.244679,14.901062416687012,2.154778,14.791512416687013Q2.064876,14.681972416687012,1.986145,14.564142416687012Q1.907414,14.446312416687011,1.8406120000000001,14.321332416687012Q1.773809,14.196352416687013,1.719578,14.065432416687011Q1.665347,13.934502416687012,1.624211,13.79889241668701Q1.5830737,13.66328241668701,1.5554271,13.52430241668701Q1.5277804,13.385312416687011,1.5138902,13.244282416687012Q1.5,13.103252416687011,1.5,12.961532416687012Q1.5,12.819822416687012,1.5138902,12.678792416687012Q1.5277804,12.537762416687013,1.5554271,12.398772416687011Q1.5830737,12.259792416687011,1.624211,12.124182416687011Q1.665347,11.988572416687012,1.719578,11.857642416687012Q1.773809,11.72672241668701,1.8406120000000001,11.601742416687012Q1.907414,11.476762416687011,1.986145,11.358932416687011Q2.064876,11.241102416687012,2.154778,11.131552416687011Q2.244679,11.022012416687012,2.344884,10.921806416687012Q2.44509,10.821601416687011,2.55463,10.731699416687011Q2.66418,10.641798416687012,2.78201,10.563067416687012Q2.89984,10.484336416687011,3.02482,10.417534416687012Q3.1498,10.350731416687012,3.28072,10.296500416687012Q3.41165,10.242269416687012,3.54726,10.201133416687012Q3.68287,10.159996116687012,3.82186,10.132349516687011Q3.96084,10.104702816687011,4.10187,10.090812616687012Q4.242900000000001,10.076922416687012,4.38462,10.076922416687012Q4.52633,10.076922416687012,4.66736,10.090812616687012Q4.80839,10.104702816687011,4.94738,10.132349516687011Q5.08636,10.159996116687012,5.22198,10.201133416687012Q5.3575800000000005,10.242269416687012,5.48851,10.296500416687012Q5.61943,10.350731416687012,5.74441,10.417534416687012Q5.86939,10.484336416687011,5.98722,10.563067416687012Q6.10505,10.641798416687012,6.2146,10.731699416687011Q6.32414,10.821601416687011,6.42435,10.921806416687012Q6.52455,11.022012416687012,6.61445,11.131552416687011Q6.70435,11.241102416687012,6.78309,11.358932416687011Q6.86182,11.476762416687011,6.92862,11.601742416687012Q6.99542,11.72672241668701,7.04965,11.857642416687012Q7.10388,11.988572416687012,7.14502,12.124182416687011Q7.18616,12.259792416687011,7.2138,12.398772416687011Q7.24145,12.537762416687013,7.25534,12.678792416687012Q7.26923,12.819822416687012,7.26923,12.961532416687012ZM6.14923,12.961532416687012Q6.14923,12.874842416687011,6.14073,12.788572416687012Q6.13224,12.702302416687012,6.11532,12.617282416687011Q6.09841,12.532252416687012,6.07325,12.449292416687012Q6.04808,12.366342416687012,6.01491,12.286252416687011Q5.98173,12.206152416687011,5.94087,12.129702416687012Q5.9,12.053252416687013,5.85184,11.981172416687011Q5.80368,11.909092416687011,5.74868,11.842072416687012Q5.69369,11.775062416687012,5.63239,11.713762416687011Q5.57109,11.652462416687012,5.50408,11.597472416687012Q5.43706,11.542472416687012,5.36498,11.494312416687011Q5.2928999999999995,11.446152416687012,5.21645,11.405282416687012Q5.140000000000001,11.364422416687011,5.0599,11.331242416687012Q4.9798100000000005,11.298072416687011,4.89686,11.272902416687012Q4.8139,11.24774241668701,4.728870000000001,11.230832416687011Q4.6438500000000005,11.213912416687013,4.55758,11.205422416687012Q4.47131,11.196922416687013,4.38462,11.196922416687013Q4.29793,11.196922416687013,4.211650000000001,11.205422416687012Q4.12538,11.213912416687013,4.04036,11.230832416687011Q3.95533,11.24774241668701,3.87238,11.272902416687012Q3.78942,11.298072416687011,3.70933,11.331242416687012Q3.62924,11.364422416687011,3.55278,11.405282416687012Q3.47633,11.446152416687012,3.40425,11.494312416687011Q3.33217,11.542472416687012,3.26516,11.597472416687012Q3.19814,11.652462416687012,3.1368400000000003,11.713762416687011Q3.07554,11.775062416687012,3.02055,11.842072416687012Q2.96555,11.909092416687011,2.91739,11.981172416687011Q2.86923,12.053252416687013,2.82836,12.129702416687012Q2.7875,12.206152416687011,2.75432,12.286252416687011Q2.7211499999999997,12.366342416687012,2.69598,12.449292416687012Q2.67082,12.532252416687012,2.6539099999999998,12.617282416687011Q2.63699,12.702302416687012,2.6285,12.788572416687012Q2.62,12.874842416687011,2.62,12.961532416687012Q2.62,13.048222416687011,2.6285,13.134502416687011Q2.63699,13.220772416687012,2.6539099999999998,13.305792416687012Q2.67082,13.390822416687012,2.69598,13.473782416687012Q2.7211499999999997,13.556732416687012,2.75432,13.63682241668701Q2.7875,13.716922416687012,2.82836,13.793372416687012Q2.86923,13.869822416687011,2.91739,13.941902416687011Q2.96555,14.01398241668701,3.02055,14.08099241668701Q3.07554,14.148012416687012,3.1368400000000003,14.209312416687013Q3.19814,14.270612416687012,3.26516,14.325602416687012Q3.33217,14.380602416687012,3.40425,14.428762416687011Q3.47633,14.476922416687012,3.55278,14.517792416687012Q3.62924,14.55865241668701,3.70933,14.591832416687012Q3.78942,14.62500241668701,3.87237,14.650172416687012Q3.95533,14.675332416687013,4.04036,14.692242416687012Q4.12538,14.709162416687011,4.211650000000001,14.717652416687011Q4.29793,14.726152416687011,4.38462,14.726152416687011Q4.47131,14.726152416687011,4.55758,14.717652416687011Q4.6438500000000005,14.709162416687011,4.728870000000001,14.692242416687012Q4.8139,14.675332416687013,4.89686,14.650172416687012Q4.9798100000000005,14.62500241668701,5.0599,14.591832416687012Q5.140000000000001,14.55865241668701,5.21645,14.517792416687012Q5.2928999999999995,14.476922416687012,5.36498,14.428762416687011Q5.43706,14.380602416687012,5.50408,14.325602416687012Q5.57109,14.270612416687012,5.63239,14.209312416687013Q5.69369,14.148012416687012,5.74868,14.08099241668701Q5.80368,14.01398241668701,5.85184,13.941902416687011Q5.9,13.869822416687011,5.94087,13.793372416687012Q5.98173,13.716912416687013,6.01491,13.63682241668701Q6.04808,13.556732416687012,6.07325,13.473782416687012Q6.09841,13.390822416687012,6.11532,13.305792416687012Q6.13224,13.220772416687012,6.14073,13.134502416687011Q6.14923,13.048222416687011,6.14923,12.961532416687012Z" fill="#606266" fill-opacity="1"></path></g></g></g></svg>