<svg xmlns="http://www.w3.org/2000/svg" width="20" height="20" viewBox="0 0 20 20"><title>my_system</title><g fill="none" class="nc-icon-wrapper"><defs><clipPath id="1747799091745-7567069_master_svg0_11_1811"><rect x="0" y="0" width="20" height="20" rx="0"></rect></clipPath></defs><g clip-path="url(#1747799091745-7567069_master_svg0_11_1811)"><path d="M10.000001874999999,18.75784921875C9.546871875,18.75784921875,9.091791875,18.64064921875,8.687501874999999,18.40824921875L3.388671875,15.34764921875C2.5800778749999997,14.88084921875,2.076171875,14.00974921875,2.076171875,13.07614921875L2.076171875,6.95507921875C2.076171875,6.02148921875,2.578124875,5.15038921875,3.388671875,4.68358921875L8.687501874999999,1.62304721875C9.496091875000001,1.15625021875,10.501951875,1.15625021875,11.310551875,1.62304721875L16.611371875,4.68358921875C17.419971875,5.15038921875,17.923871875,6.02148921875,17.923871875,6.95507921875L17.923871875,13.07614921875C17.923871875,14.00974921875,17.421871875,14.88084921875,16.611371875,15.34764921875L11.312501875,18.40824921875C10.908201875,18.64064921875,10.453121875,18.75784921875,10.000001874999999,18.75784921875ZM10.000001874999999,3.02343921875C9.849611875,3.02343921875,9.699221875,3.06249921875,9.564451875,3.14062921875L4.263671875,6.20116921875C3.994141875,6.35546921875,3.828121875,6.64452921875,3.828121875,6.95507921875L3.828121875,13.07614921875C3.828121875,13.38674921875,3.994141875,13.67574921875,4.263671875,13.83004921875L9.564451875,16.89064921875C9.833981875,17.04494921875,10.166011875,17.04494921875,10.435551875,16.89064921875L15.736371875,13.83004921875C16.005871875,13.67574921875,16.171871875,13.38674921875,16.171871875,13.07614921875L16.171871875,6.95507921875C16.171871875,6.64452921875,16.005871875,6.35546921875,15.736371875,6.20116921875L10.435551875,3.14062921875C10.300781875,3.06249921875,10.150391875,3.02343921875,10.000001874999999,3.02343921875Z" fill="#606266" fill-opacity="1" style="mix-blend-mode:passthrough"></path><path d="M10.039063203125,10.917975703125C9.886723203125001,10.917975703125,9.736333203125,10.878905703125,9.601563203125,10.800785703125001L5.291018203125,8.308595703125C4.871096803125,8.066405703125,4.728518203125,7.531252703125,4.970706203125,7.111331703125C5.212893203125,6.691409303125,5.7480502031250005,6.548830703125,6.167973203125,6.791018703125L10.037113203125,9.027345703125L13.742193203125,6.861330703125C14.160163203125,6.617190503125,14.697273203125,6.757815603125,14.941383203125,7.175784703125C15.185583203125,7.593752703125,15.044883203125,8.130865703125,14.626953203125,8.375005703125L10.482423203125,10.796875703125C10.345703203125,10.876955703124999,10.191413203125,10.917975703125,10.039063203125,10.917975703125Z" fill="#606266" fill-opacity="1" style="mix-blend-mode:passthrough"></path><path d="M9.999999875,15.7382825C9.515624875,15.7382825,9.123046875,15.3457025,9.123046875,14.8613325L9.123046875,10.0410155C9.123046875,9.5566405,9.515624875,9.1640625,9.999999875,9.1640625C10.484376875,9.1640625,10.876956875,9.5566405,10.876956875,10.0410155L10.876956875,14.8632825C10.876956875,15.3457025,10.484376875,15.7382825,9.999999875,15.7382825Z" fill="#606266" fill-opacity="1" style="mix-blend-mode:passthrough"></path></g></g></svg>