<svg xmlns="http://www.w3.org/2000/svg" width="20" height="20" viewBox="0 0 20 20"><title>my_tools</title><g fill="none" class="nc-icon-wrapper"><defs><clipPath id="1747799091743-9338948_master_svg0_11_1821"><rect x="0" y="0" width="20" height="20" rx="0"></rect></clipPath></defs><g clip-path="url(#1747799091743-9338948_master_svg0_11_1821)"><path d="M7.11721765625,18.0937572265625L6.82229765625,18.0937572265625C5.53322765625,18.0937572265625,4.48440765625,17.044957226562502,4.48440765625,15.7558572265625L4.48440765625,9.9218772265625C3.0332306562499998,8.958987226562499,2.25588665625,7.2285172265625,2.52932455625,5.4687472265625C2.76955865625,3.9101572265625,3.84377765625,2.5781232265625,5.33400765625,1.9921861265625C5.58205765625,1.8945299265625,5.86330765625,1.9257799265625,6.08596765625,2.0761702265625C6.30666765625,2.2265612265625,6.43947765625,2.4765612265625,6.43947765625,2.7441392265625L6.43947765625,5.0351572265625L7.50393765625,5.0351572265625L7.50393765625,2.7499982265625C7.50393765625,2.4824202265625,7.63674765625,2.2324202265625,7.85744765625,2.0820302265625C8.07815765625,1.9316392865625,8.35940765625,1.9003893265625,8.607447656249999,1.9960924265625C10.343777656250001,2.6757802265625,11.46486765625,4.3164072265625,11.46486765625,6.1777372265625C11.46486765625,7.7011672265625,10.70510765625,9.093747226562499,9.45315765625,9.9218772265625L9.45315765625,15.7558572265625C9.45510765625,17.044957226562502,8.406277656250001,18.0937572265625,7.11721765625,18.0937572265625ZM4.82033765625,4.2636672265625C4.45705765625,4.667967226562499,4.21096765625,5.1699172265625,4.12697765625,5.7148372265625C3.93557765625,6.9550772265625,4.55275765625,8.1718772265625,5.66213765625,8.7382772265625C5.93166765625,8.8769472265625,6.10158765625,9.1542972265625,6.10158765625,9.458987226562499L6.10158765625,15.7558572265625C6.10158765625,16.1523572265625,6.42385765625,16.4745572265625,6.82033765625,16.4745572265625L7.11525765625,16.4745572265625C7.51174765625,16.4745572265625,7.83596765625,16.1523572265625,7.83596765625,15.7558572265625L7.83596765625,9.458987226562499C7.83596765625,9.156247226562499,8.00588765625,8.8769472265625,8.27541765625,8.7382772265625C9.24416765625,8.2421872265625,9.84572765625,7.2617172265625,9.84572765625,6.1777372265625C9.84572765625,5.4511672265625,9.57815765625,4.7773472265625,9.11721765625,4.2636672265625L9.11721765625,5.8437472265625C9.11721765625,6.2910172265625,8.75588765625,6.6523372265625,8.30861765625,6.6523372265625L5.628937656250001,6.6523372265625C5.18166765625,6.6523372265625,4.82033765625,6.2910172265625,4.82033765625,5.8437472265625L4.82033765625,4.2636672265625ZM15.07029765625,18.0937572265625L13.95119765625,18.0937572265625C12.61329765625,18.0937572265625,11.52346765625,17.003857226562502,11.52346765625,15.6660572265625L11.52346765625,10.2480472265625C11.52346765625,9.8007772265625,11.88479765625,9.4394472265625,12.33205765625,9.4394472265625L16.689497656249998,9.4394472265625C17.13669765625,9.4394472265625,17.49809765625,9.8007772265625,17.49809765625,10.2480472265625L17.49809765625,15.6660572265625C17.49809765625,17.003857226562502,16.40819765625,18.0937572265625,15.07029765625,18.0937572265625ZM13.14069765625,11.0566372265625L13.14069765625,15.6660572265625C13.14069765625,16.1132572265625,13.50389765625,16.476557226562498,13.95119765625,16.476557226562498L15.07029765625,16.476557226562498C15.51759765625,16.476557226562498,15.88089765625,16.1132572265625,15.88089765625,15.6660572265625L15.88089765625,11.0566372265625L13.14069765625,11.0566372265625Z" fill="#606266" fill-opacity="1" style="mix-blend-mode:passthrough"></path><path d="M14.509765875,11.01366875C14.062499875,11.01366875,13.701171875,10.65234875,13.701171875,10.20507875L13.701171875,2.7265627500000003C13.701171875,2.27929675,14.062499875,1.91796875,14.509765875,1.91796875C14.957031875,1.91796875,15.318361875,2.27929675,15.318361875,2.7265627500000003L15.318361875,10.20507875C15.320311875,10.65234875,14.957031875,11.01366875,14.509765875,11.01366875Z" fill="#606266" fill-opacity="1" style="mix-blend-mode:passthrough"></path></g></g></svg>