<svg xmlns="http://www.w3.org/2000/svg" width="18" height="18" viewBox="0 0 18 18"><title>my_user</title><g fill="none" class="nc-icon-wrapper"><defs><clipPath id="1747798583050-1336821_master_svg0_62_04446"><rect x="0" y="0" width="18" height="18" rx="0"></rect></clipPath></defs><g clip-path="url(#1747798583050-1336821_master_svg0_62_04446)"><path d="M8.999995625,1.58203125C6.644055625,1.58203125,4.727195625,3.44000125,4.727195625,5.74084125L4.727405624999999,5.78313125C4.739505625,6.96886125,5.258425625,8.27961125,6.077845625,9.25991125L6.097885625,9.283671250000001L2.947482625,11.83583125C2.650838625,12.07613125,2.478515453339,12.43743125,2.478515625,12.81923125L2.478515625,15.01173125C2.478515625,15.78833125,3.1081116250000003,16.417931250000002,3.884765625,16.417931250000002L14.115215625,16.417931250000002C14.891915625,16.417931250000002,15.521515625,15.78833125,15.521515625,15.01173125L15.521515625,12.80783125C15.518015625,12.43003125,15.346015625,12.07353125,15.052415625,11.83573125L11.902045625,9.284011249999999L11.922235625,9.26005125C12.751415625,8.26783125,13.272815625,6.93754125,13.272815625,5.74084125C13.272815625,3.44000125,11.355945625,1.58203125,8.999995625,1.58203125Z" fill="#606266" fill-opacity="1" style="mix-blend-mode:passthrough"></path><path d="M8.999995625,2.70703125C10.742345624999999,2.70703125,12.147805625,4.06932125,12.147805625,5.74084125C12.147805625,6.82928125,11.561165625000001,8.12398125,10.693245625,8.92396125C10.440965625,9.156481249999999,10.453835625,9.55872125,10.720425625,9.77467125L14.344415625,12.70993125C14.377315625,12.73663125,14.396515625,12.77683125,14.396515625,12.81923125L14.396515625,15.01173125C14.396515625,15.16703125,14.270615625,15.29293125,14.115215625,15.29293125L3.884765625,15.29293125C3.729427625,15.29293125,3.603515625,15.16703125,3.603515625,15.01173125L3.603515625,12.81923125C3.603515625,12.77683125,3.622660325,12.73663125,3.655617225,12.70993125L7.279595625,9.77423125C7.546215625,9.55825125,7.559015625,9.155951250000001,7.306665625,8.92345125C6.438835624999999,8.12394125,5.852195625,6.82929125,5.852195625,5.74084125C5.852195625,4.06933125,7.257655625,2.70703125,8.999995625,2.70703125Z" fill="#FFF" fill-opacity="1" style="mix-blend-mode:passthrough"></path><path d="M9,10.93359375C9.310658,10.93359375,9.5625,11.18543575,9.5625,11.49609375L9.5625,14.09765375L8.4375,14.09765375L8.4375,11.49609375C8.4375,11.18543575,8.689342,10.93359375,9,10.93359375Z" fill="#606266" fill-opacity="1" style="mix-blend-mode:passthrough"></path></g></g></svg>