<svg xmlns="http://www.w3.org/2000/svg" width="20" height="20" viewBox="0 0 20 20"><title>my_watch</title><g fill="none" class="nc-icon-wrapper"><defs><clipPath id="1747799091741-5062694_master_svg0_11_1815"><rect x="0" y="0" width="20" height="20" rx="0"></rect></clipPath></defs><g clip-path="url(#1747799091741-5062694_master_svg0_11_1815)"><path d="M15.580071875,18.765662499999998L4.283201875,18.765662499999998C2.927731875,18.765662499999998,1.826171875,17.6640625,1.826171875,16.3085625L1.826171875,6.8085925C1.826171875,5.4531225,2.927731875,4.3515625,4.283201875,4.3515625C4.767581874999999,4.3515625,5.158201875,4.7441405,5.158201875,5.2265625C5.158201875,5.7089825,4.765621875,6.1015625,4.283201875,6.1015625C3.894531875,6.1015625,3.578121875,6.417972499999999,3.578121875,6.806642500000001L3.578121875,16.3085625C3.578121875,16.6972625,3.894531875,17.013662500000002,4.283201875,17.013662500000002L15.580071875,17.013662500000002C15.968771875,17.013662500000002,16.285171875,16.6972625,16.285171875,16.3085625L16.285171875,6.8085925C16.285171875,6.4199225,15.968771875,6.1035125,15.580071875,6.1035125L7.519531875,6.1035125C7.035151875,6.1035125,6.644531875,5.7109425,6.644531875,5.2285155C6.644531875,4.7460935,7.037111875,4.35351562,7.519531875,4.35351562L15.580071875,4.35351562C16.935571875,4.35351562,18.037071875,5.4550825,18.037071875,6.8105425L18.037071875,16.3085625C18.037071875,17.662062499999998,16.935571875,18.765662499999998,15.580071875,18.765662499999998Z" fill="#606266" fill-opacity="1" style="mix-blend-mode:passthrough"></path><path d="M8.14452875,15.033201250000001C6.22851875,15.033201250000001,4.66796875,13.474611249999999,4.66796875,11.55664125C4.66796875,9.63867125,6.22655875,8.08203125,8.14452875,8.08203125C10.06249875,8.08203125,11.619138750000001,9.64062125,11.619138750000001,11.55664125C11.619138750000001,13.47265125,10.060548749999999,15.033201250000001,8.14452875,15.033201250000001ZM8.14452875,9.83398125C7.19335875,9.83398125,6.41991875,10.60742125,6.41991875,11.55859125C6.41991875,12.50976125,7.19335875,13.283201250000001,8.14452875,13.283201250000001C9.09569875,13.283201250000001,9.869138750000001,12.50976125,9.869138750000001,11.55859125C9.86718875,10.60742125,9.09374875,9.83398125,8.14452875,9.83398125Z" fill="#606266" fill-opacity="1" style="mix-blend-mode:passthrough"></path><path d="M14.744143125,10.087890875Q14.744143125,10.175224875,14.727103125,10.260881874999999Q14.710063125,10.346531875,14.676643125,10.427221875Q14.643223125,10.507911875,14.594703125,10.580521875Q14.546183125,10.653141875,14.484423125,10.714891875Q14.422673125,10.776651875,14.350053125,10.825171875Q14.277443125,10.873691875,14.196753125,10.907111875Q14.116073125,10.940531875,14.030413124999999,10.957571875Q13.944757125,10.974611875,13.857423125,10.974611875Q13.770088125000001,10.974611875,13.684432125,10.957571875Q13.598776125,10.940531875,13.518090125,10.907111875Q13.437403125,10.873691875,13.364788125,10.825171875Q13.292172125,10.776651875,13.230417125,10.714891875Q13.168662125,10.653141875,13.120142125,10.580521875Q13.071622125,10.507911875,13.038200625,10.427221875Q13.004779225,10.346531875,12.987741225,10.260881874999999Q12.970703125,10.175224875,12.970703125,10.087890875Q12.970703125,10.000555875,12.987741225,9.914899875Q13.004779225,9.829243875,13.038200625,9.748557875Q13.071622125,9.667871875,13.120142125,9.595255875Q13.168662125,9.522639875,13.230417125,9.460885875Q13.292172125,9.399130875,13.364788125,9.350610875Q13.437403125,9.302090875,13.518090125,9.268669275Q13.598776125,9.235247975,13.684432125,9.218209875Q13.770088125000001,9.201171875,13.857423125,9.201171875Q13.944757125,9.201171875,14.030413124999999,9.218209875Q14.116073125,9.235247975,14.196753125,9.268669275Q14.277443125,9.302090875,14.350053125,9.350610875Q14.422673125,9.399130875,14.484423125,9.460885875Q14.546183125,9.522639875,14.594703125,9.595255875Q14.643223125,9.667871875,14.676643125,9.748557875Q14.710063125,9.829243875,14.727103125,9.914899875Q14.744143125,10.000555875,14.744143125,10.087890875Z" fill="#606266" fill-opacity="1" style="mix-blend-mode:passthrough"></path><path d="M14.744143125,12.775389875Q14.744143125,12.862723875,14.727103125,12.948381874999999Q14.710063125,13.034031875,14.676643125,13.114721875Q14.643223125,13.195411875,14.594703125,13.268021875Q14.546183125,13.340641875,14.484423125,13.402391875Q14.422673125,13.464151875,14.350053125,13.512671875Q14.277443125,13.561191875,14.196753125,13.594611875Q14.116073125,13.628031875,14.030413124999999,13.645071875Q13.944757125,13.662111875,13.857423125,13.662111875Q13.770088125000001,13.662111875,13.684432125,13.645071875Q13.598776125,13.628031875,13.518090125,13.594611875Q13.437403125,13.561191875,13.364788125,13.512671875Q13.292172125,13.464151875,13.230417125,13.402391875Q13.168662125,13.340641875,13.120142125,13.268021875Q13.071622125,13.195411875,13.038200625,13.114721875Q13.004779225,13.034031875,12.987741225,12.948381874999999Q12.970703125,12.862723875,12.970703125,12.775389875Q12.970703125,12.688055875,12.987741225,12.602399875Q13.004779225,12.516743875,13.038200625,12.436057875Q13.071622125,12.355371875,13.120142125,12.282755875Q13.168662125,12.210139875,13.230417125,12.148385875Q13.292172125,12.086630875,13.364788125,12.038110875Q13.437403125,11.989590875,13.518090125,11.956169275Q13.598776125,11.922747975,13.684432125,11.905709875Q13.770088125000001,11.888671875,13.857423125,11.888671875Q13.944757125,11.888671875,14.030413124999999,11.905709875Q14.116073125,11.922747975,14.196753125,11.956169275Q14.277443125,11.989590875,14.350053125,12.038110875Q14.422673125,12.086630875,14.484423125,12.148385875Q14.546183125,12.210139875,14.594703125,12.282755875Q14.643223125,12.355371875,14.676643125,12.436057875Q14.710063125,12.516743875,14.727103125,12.602399875Q14.744143125,12.688055875,14.744143125,12.775389875Z" fill="#606266" fill-opacity="1" style="mix-blend-mode:passthrough"></path><path d="M7.519562984375,6.1034926953125C7.214874984375,6.1034926953125,6.919952984375,5.9452926953125,6.7578439843750004,5.6601326953125C6.517608984375,5.240212695312501,6.664093784375,4.705052695312499,7.0859689843750004,4.4648226953125L12.537143984375,1.3593536953125C12.957063984375,1.1191196953125,13.492213984374999,1.2675567953125,13.732453984374999,1.6874786953125C13.972683984375,2.1074006953125,13.826203984374999,2.6425526953125003,13.404323984375,2.8827926953125003L7.953153984375,5.9882626953125C7.816433984375,6.0663826953125,7.6660439843749995,6.1034926953125,7.519562984375,6.1034926953125Z" fill="#606266" fill-opacity="1" style="mix-blend-mode:passthrough"></path></g></g></svg>